<svg width="24" height="24" viewBox="0 0 24 24" fill="none" xmlns="http://www.w3.org/2000/svg">
<path d="M14.448 16.24C13.9125 17.0014 13.329 17.7279 12.701 18.415C14.374 20.038 15.929 20.798 16.792 20.299C17.655 19.801 17.774 18.074 17.205 15.815C16.352 16.005 15.426 16.15 14.448 16.24ZM13.138 16.326C12.38 16.3574 11.621 16.3574 10.863 16.326C11.239 16.818 11.621 17.274 12 17.689C12.38 17.274 12.761 16.819 13.138 16.326ZM18.178 8.431C20.843 9.195 22.584 10.465 22.584 11.998C22.584 13.531 20.844 14.801 18.179 15.565C18.849 18.255 18.619 20.397 17.292 21.163C15.965 21.93 13.995 21.058 12 19.132C10.006 21.057 8.03599 21.93 6.70899 21.163C5.38099 20.397 5.15199 18.255 5.82199 15.565C3.15699 14.801 1.41699 13.531 1.41699 11.998C1.41699 10.465 3.15699 9.195 5.82199 8.431C5.15199 5.741 5.38199 3.599 6.70899 2.832C8.03599 2.066 10.006 2.938 12 4.864C13.995 2.938 15.965 2.066 17.292 2.832C18.619 3.599 18.849 5.741 18.179 8.431M17.206 8.183C17.776 5.923 17.656 4.197 16.793 3.698C15.93 3.2 14.375 3.96 12.703 5.583C13.3305 6.27022 13.9137 6.99669 14.449 7.758C15.427 7.848 16.353 7.992 17.206 8.183ZM6.79599 15.813C6.22699 18.073 6.34599 19.799 7.20999 20.297C8.07299 20.795 9.62799 20.036 11.3 18.413C10.6723 17.7256 10.0891 16.9988 9.55399 16.237C8.62689 16.1541 7.70602 16.0122 6.79699 15.812M10.865 7.67C11.623 7.63862 12.382 7.63862 13.14 7.67C12.7798 7.20045 12.3994 6.74669 12 6.31C11.62 6.726 11.24 7.182 10.863 7.674M9.55299 7.761C10.0881 6.99958 10.6713 6.2731 11.299 5.586C9.62699 3.962 8.07199 3.202 7.20999 3.7C6.34699 4.199 6.22699 5.926 6.79699 8.185C7.64999 7.995 8.57599 7.851 9.55399 7.76M13.894 15.28C14.6062 14.2354 15.2393 13.139 15.788 12C15.2396 10.861 14.6069 9.76463 13.895 8.72C12.6344 8.62565 11.3686 8.62565 10.108 8.72C9.39546 9.76457 8.76203 10.861 8.21299 12C8.76178 13.139 9.39488 14.2353 10.107 15.28C11.3676 15.3742 12.6334 15.3742 13.894 15.28ZM15.179 15.148C15.794 15.068 16.379 14.966 16.929 14.845C16.7492 14.2808 16.545 13.7246 16.317 13.178C15.9653 13.85 15.586 14.5073 15.18 15.148M8.82299 8.851C8.20799 8.931 7.62299 9.034 7.07299 9.155C7.24299 9.691 7.44799 10.249 7.68599 10.822C8.03768 10.1499 8.417 9.49271 8.82299 8.852M7.07299 14.846C7.62299 14.967 8.20799 15.069 8.82299 15.149C8.41701 14.5083 8.03769 13.851 7.68599 13.179C7.45768 13.7255 7.25316 14.2817 7.07299 14.846ZM6.09499 14.601C6.35699 13.767 6.69499 12.893 7.10499 12.001C6.71337 11.1567 6.37602 10.2883 6.09499 9.401C3.85399 10.037 2.41799 11.005 2.41799 12.001C2.41799 12.997 3.85399 13.964 6.09499 14.601ZM16.93 9.155C16.3513 9.0284 15.7674 8.92697 15.18 8.851C15.586 9.49172 15.9653 10.149 16.317 10.821C16.555 10.249 16.759 9.691 16.93 9.155ZM17.907 9.4C17.647 10.234 17.307 11.108 16.897 12C17.307 12.892 17.647 13.766 17.907 14.6C20.149 13.963 21.585 12.996 21.585 12C21.585 11.004 20.149 10.037 17.907 9.4ZM12 13.879C11.7481 13.8872 11.4971 13.8447 11.2619 13.754C11.0268 13.6632 10.8123 13.5262 10.6312 13.3509C10.4501 13.1756 10.3061 12.9656 10.2077 12.7336C10.1094 12.5015 10.0587 12.252 10.0587 12C10.0587 11.7479 10.1094 11.4985 10.2077 11.2664C10.3061 11.0343 10.4501 10.8244 10.6312 10.6491C10.8123 10.4738 11.0268 10.3368 11.2619 10.246C11.4971 10.1553 11.7481 10.1128 12 10.121C12.4877 10.1369 12.9502 10.3418 13.2895 10.6925C13.6289 11.0431 13.8187 11.512 13.8187 12C13.8187 12.488 13.6289 12.9569 13.2895 13.3075C12.9502 13.6581 12.4877 13.8631 12 13.879Z" fill="#699BF7"/>
</svg>
